# xmcd
#
# Track frame offsets:
# 150
# 13809
# 36326
# 50444
# 62732
# 72538
# 83723
# 95960
# 108572
# 120636
# 133058
# 144308
# 158516
# 170184
# 181843
# 193942
# 215398
# 230798
# 243790
# 255553
#
# Disc length: 3587 seconds
#
#
# Revision: 0
# Processed by: cddbd v1.5.1PL0 Copyright (c) Steve Scherf et al.
# Submitted via: FreeRIP 2.70 
#
DISCID=290e0114
DTITLE=Various Artist - Blues Anthology - Disk 1 of 2
DYEAR=2004
DGENRE=Blues
TTITLE0=Hoochie Coochie Man - Muddy Waters
TTITLE1=Everyday I Have The Blues - B.B. King
TTITLE2=Rockin' The Blues - Howlin' Wolf
TTITLE3=Shaggy Dog - Lightnin' Hopkins
TTITLE4=I'm Leaving (Baby) - John Lee Hooker
TTITLE5=Hard Headed Woman - John Lee Hooker
TTITLE6=I Know Your Wig Is Gone - T-Bone Walker
TTITLE7=Chicken Shack Boogie - Amos Milburn
TTITLE8=No Love Blues - Sonny Terry
TTITLE9=Vitamin A -Big Joe Williams
TTITLE10=Dead Shrimp Blues - Robert Johnson
TTITLE11=Death Letter Blues - Leadbelly
TTITLE12=Talk Of The Towns - Lightnin' Hopkins
TTITLE13=You Gonna Miss Me - Muddy Waters
TTITLE14=Midnight Blues - T-Bone Walker
TTITLE15=Goin' Down Slow - Howlin' Wolf
TTITLE16=Walkin' And Cryin' - B.B. King
TTITLE17=I'm So Excited - John Lee Hooker
TTITLE18=Shinin' Moon - Lightnin' Hopkins
TTITLE19=Stormy Monday - T-Bone Walker
EXTD=2 CD Set 40 Archive and Live Recordings
EXTT0=
EXTT1=
EXTT2=
EXTT3=
EXTT4=
EXTT5=
EXTT6=
EXTT7=
EXTT8=
EXTT9=
EXTT10=
EXTT11=
EXTT12=
EXTT13=
EXTT14=
EXTT15=
EXTT16=
EXTT17=
EXTT18=
EXTT19=
PLAYORDER=
